#!OML:ASF F:\VICON\USERDATA\INSTALL\rory3\rory3.ASF
:FULLY-SPECIFIED
:DEGREES
96
root 0.3019003655278962 17.581745233638046 48.70437907629079 -2.3079858580675796 -4.3788976330897755 -6.178305531696454
lfemur -24.135870501041893 -5.755706137755727 -9.645684328152878
ltibia 7.3403532348272655
lfoot 1.8457319301680597 -3.177784618507211
ltoes -19.83737579645573
rfemur 3.1738453595295635 2.390472739175035 33.22201257410284
rtibia 34.41991568486655
rfoot -2.010706483748846 -8.269376032291259
rtoes -18.630518870604508
lowerback -1.0 1.399324759896256 4.598158035003464
upperback -0.272738096640501 3.3824724949261515 1.7438293163466299
thorax -5.789096013261215 1.724910152710544 -2.0211128823461415
lowerneck -16.966829445112108 -3.513103445442325 -2.474792423397188
upperneck 19.86017859908781 -4.7439724661038145 2.1854334572414236
head 8.994243946926893 -2.1405033105375844 0.5135370051455286
lclavicle 5.830837211054568e-17 -1.8847834474279113e-14
lhumerus -38.49483129212526 15.56096183139661 75.80736586487652
lradius 17.41777605046645
lwrist 1.8037777648228301
lhand -28.748643308419275 25.639862709184
lfingers nan
lthumb -2.0167185625685145 55.90013642605324
rclavicle -4.16482158293922e-16 -1.9003289263317525e-14
rhumerus -20.67694778271504 -12.384051607657145 -81.68144223784442
rradius 38.742843901357595
rwrist 0.3455895407756784
rhand -19.405883638633053 -1.0
rfingers nan
rthumb 7.221107846859958 -5.707888013559395
97
root 0.3633002589794646 17.633435187231942 49.28882182690877 -3.1820359931925832 -3.5139333512504307 -4.3777774149943625
lfemur -22.617121310514538 -5.49437389957693 -12.804683764246466
ltibia 9.373082540051609
lfoot 3.377540733047897 -6.726851695422157
ltoes -18.081951898519627
rfemur 2.071561095294543 1.032709380881359 29.875840056456656
rtibia 42.377376619629146
rfoot 2.8572525825122908 -6.5303584767864615
rtoes -19.36013315118063
lowerback -1.0 1.334443519852396 2.3540452953534223
upperback -0.45793442782191274 2.880627097872746 1.1469348384206843
thorax -5.971257281167751 1.5927989894038157 -1.1085299088562615
lowerneck -16.427208341447603 -3.574010767593493 -2.4457979835687387
upperneck 20.576278545173476 -4.994949709360574 2.2456729167202596
head 9.231354011089262 -2.2117603217248463 0.5124290411046701
lclavicle 2.293951266166202e-14 1.1008733711421604e-15
lhumerus -39.02199733220951 17.35536155002757 73.95730157298645
lradius 15.070742438974326
lwrist -0.89372228386683
lhand -30.105343946265805 23.925401523001426
lfingers nan
lthumb -3.312648837648686 54.15116431740575
rclavicle 2.2010453825193235e-14 5.21125276668473e-16
rhumerus -22.665381258740805 -13.882810899729042 -81.23001638604124
rradius 38.331524407764945
rwrist 1.461205018020567
rhand -19.484798564992822 -1.0
rfingers nan
rthumb 7.137255240500229 -5.210881483029925
98
root 0.3894620038296577 17.678063793495454 50.38637762915921 -3.648015602880027 -3.0005731662333375 -4.345673641915248
lfemur -21.2229872537492 -4.390274747408467 -13.929454596939989
ltibia 12.053897576748849
lfoot 1.6921116720106744 -7.736415621572978
ltoes -20.73944645512968
rfemur -2.028718002648942 -1.0176238771220345 28.183395347772365
rtibia 53.08800809123867
rfoot 12.359876793117099 -5.210714261947656
rtoes -16.027988412563914
lowerback -1.0 1.1506868057204533 2.3766363125918364
upperback -0.3970149989213564 2.6822049240435515 1.2336824874881298
thorax -5.919380769877403 1.4763014503988139 -0.9804143587628376
lowerneck -17.131874065755895 -3.7163426032964035 -2.6974835673968665
upperneck 20.99059517190804 -5.134279963973962 2.1387888679600318
head 9.49031875200706 -2.277262952297405 0.4740099287096763
lclavicle 3.5226629206411053e-14 3.8511990487587835e-15
lhumerus -38.90667851511881 18.388507083963496 73.08456133654693
lradius 14.83824911960828
lwrist -3.2283502262903587
lhand -30.042738476303537 24.0390800478075
lfingers nan
lthumb -3.2475383609270283 54.22779160974857
rclavicle 3.5006130583693024e-14 3.669945769493025e-15
rhumerus -23.799447360152598 -15.950546590646915 -80.61367793609921
rradius 37.42209592836559
rwrist 2.461352449549337
rhand -18.84366974062297 -1.0
rfingers nan
rthumb 7.753537260486333 -6.196963810954371
99
root 0.43951666713488996 17.74185794189719 50.407863215310094 -4.596159445573942 -3.289646049701788 -3.2378372063985923
lfemur -17.855762343050134 -4.428398653386822 -16.220084598302424
ltibia 12.641556128177324
lfoot -0.25565062276270556 -6.728377998470514
ltoes -19.005256765111195
rfemur -7.056795107871721 -1.3604706250609304 25.227017684230333
rtibia 64.44784286338574
rfoot 20.30044210934161 -5.143262785486373
rtoes -5.199016700752175
lowerback -1.0 1.2165667849206054 0.7565458299725211
upperback -0.06291387872258997 2.586723382833684 0.8603477988121434
thorax -5.906584615251725 1.4770248077148853 -0.3001409802559536
lowerneck -16.667026091638643 -3.998441930290097 -3.5019718273408937
upperneck 20.84517871117105 -5.77123225612287 3.107698253138955
head 9.434034987708017 -2.448599799975424 0.8623492987901247
lclavicle 9.919866587492318e-15 -2.610247539102293e-15
lhumerus -38.68975356467374 16.531624072150997 74.01041322160474
lradius 15.738721564237766
lwrist -0.40447624495583856
lhand -29.249209667093925 16.561625011729543
lfingers nan
lthumb -2.441453554447913 46.88952028832782
rclavicle 9.788151837257617e-15 -2.6557142873618526e-15
rhumerus -24.94792105946919 -16.70369696742695 -80.58021793792611
rradius 36.8211858513946
rwrist 2.394284803844889
rhand -18.758480255998307 -1.0
rfingers nan
rthumb 7.838317980138717 -5.862939255093686
